<svg xmlns="http://www.w3.org/2000/svg" width="100" height="100" viewBox="0 0 100 100" fill="none">
  <path d="M75 45H70V30C70 19.25 61.25 10 50 10C38.75 10 30 19.25 30 30V45H25C22.25 45 20 47.25 20 50V85C20 87.75 22.25 90 25 90H75C77.75 90 80 87.75 80 85V50C80 47.25 77.75 45 75 45ZM40 30C40 24.5 44.5 20 50 20C55.5 20 60 24.5 60 30V45H40V30ZM70 80H30V55H70V80ZM50 72.5C53.75 72.5 57 69.25 57 65C57 60.75 53.75 57.5 50 57.5C46.25 57.5 43 60.75 43 65C43 69.25 46.25 72.5 50 72.5Z" fill="#4361EE"/>
  <path d="M50 62.5C50.9283 62.5 51.6667 63.2384 51.6667 64.1667C51.6667 65.095 50.9283 65.8333 50 65.8333C49.0717 65.8333 48.3333 65.095 48.3333 64.1667C48.3333 63.2384 49.0717 62.5 50 62.5Z" fill="#4361EE"/>
</svg>
