<svg xmlns="http://www.w3.org/2000/svg" width="390" height="844" viewBox="0 0 390 844" fill="none">
  <rect width="390" height="844" fill="#FFFFFF"/>
  <path d="M390 0H0V844H390V0Z" fill="url(#paint0_linear_112_23)"/>
  <g opacity="0.4">
    <path d="M-101.086 191.995C-95.8147 176.866 -82.6437 147.923 -60.1089 137.042C-31.4404 123.191 8.73296 146.16 41.0859 133.072C73.4389 119.984 82.7633 63.6879 119.774 55.3234C156.784 46.9589 189.903 85.0301 227.68 90.8561C265.457 96.6822 284.07 66.2164 316.423 76.0052C348.776 85.7939 365.624 130.311 389.324 138.898C413.024 147.485 458.101 110.2 465.648 146.16C473.196 182.119 422.348 231.829 422.348 231.829" stroke="#4361EE" stroke-width="2" stroke-dasharray="6 6"/>
    <circle cx="40" cy="133" r="6" fill="#4361EE"/>
    <circle cx="118" cy="55" r="6" fill="#4361EE"/>
    <circle cx="227" cy="91" r="6" fill="#4361EE"/>
    <circle cx="316" cy="76" r="6" fill="#4361EE"/>
    <circle cx="390" cy="139" r="6" fill="#4361EE"/>
    <circle cx="464" cy="147" r="6" fill="#4361EE"/>
  </g>
  <g opacity="0.4">
    <path d="M-102.086 693.995C-96.8147 678.866 -83.6437 649.923 -61.1089 639.042C-32.4404 625.191 7.73296 648.16 40.0859 635.072C72.4389 621.984 81.7633 565.688 118.774 557.323C155.784 548.959 188.903 587.03 226.68 592.856C264.457 598.682 283.07 568.216 315.423 578.005C347.776 587.794 364.624 632.311 388.324 640.898C412.024 649.485 457.101 612.2 464.648 648.16C472.196 684.119 421.348 733.829 421.348 733.829" stroke="#4361EE" stroke-width="2" stroke-dasharray="6 6"/>
    <circle cx="40" cy="635" r="6" fill="#4361EE"/>
    <circle cx="118" cy="557" r="6" fill="#4361EE"/>
    <circle cx="227" cy="593" r="6" fill="#4361EE"/>
    <circle cx="316" cy="578" r="6" fill="#4361EE"/>
    <circle cx="390" cy="641" r="6" fill="#4361EE"/>
    <circle cx="464" cy="649" r="6" fill="#4361EE"/>
  </g>
  <defs>
    <linearGradient id="paint0_linear_112_23" x1="195" y1="0" x2="195" y2="844" gradientUnits="userSpaceOnUse">
      <stop stop-color="#F8F9FD"/>
      <stop offset="1" stop-color="#FFFFFF"/>
    </linearGradient>
  </defs>
</svg>
